<svg width="1440" height="194" viewBox="0 0 1440 194" fill="none" xmlns="http://www.w3.org/2000/svg">
<path fill-rule="evenodd" clip-rule="evenodd" d="M0 83.1429L60 64.6667C120 46.1905 240 9.2381 360 23.0952C480 36.9524 600 101.619 720 110.857C840 120.095 960 73.9048 1080 46.1905C1200 18.4762 1320 9.2381 1380 4.61905L1440 0V194H1380C1320 194 1200 194 1080 194C960 194 840 194 720 194C600 194 480 194 360 194C240 194 120 194 60 194H0V83.1429Z" fill="url(#paint0_linear)"/>
<path fill-rule="evenodd" clip-rule="evenodd" d="M0 13.5349L60 7.51938C120 1.50388 240 -10.5271 360 19.5504C480 49.6279 600 121.814 720 145.876C840 169.938 960 145.876 1080 139.86C1200 133.845 1320 145.876 1380 151.891L1440 157.907V194H1380C1320 194 1200 194 1080 194C960 194 840 194 720 194C600 194 480 194 360 194C240 194 120 194 60 194H0V13.5349Z" fill="url(#paint1_linear)"/>
<defs>
<linearGradient id="paint0_linear" x1="720" y1="0" x2="720" y2="194" gradientUnits="userSpaceOnUse">
<stop stop-color="#4F66AF"/>
<stop offset="1" stop-color="#4E2EC3" stop-opacity="0.2"/>
<stop offset="1" stop-color="#E5E5E5"/>
</linearGradient>
<linearGradient id="paint1_linear" x1="720" y1="0" x2="720" y2="194" gradientUnits="userSpaceOnUse">
<stop stop-color="#4F66AF"/>
<stop offset="1" stop-color="#4F66AF" stop-opacity="0.1"/>
</linearGradient>
</defs>
</svg>
